<svg xmlns="http://www.w3.org/2000/svg" xmlns:xlink="http://www.w3.org/1999/xlink" fill="none" height="500" width="1500">
  <g clip-path="url(#clip0)">
    <rect fill="#1E1E1E" height="500" width="1500"/>
    <rect fill="#001219" height="500" width="1500"/>
    <rect fill="#34a0a4" transform="rotate(-37 286 622)" height="759.9" width="1614.3" y="622" x="286"/>
    <circle fill="#fff" r="183" cy="225" cx="750"/>
    <path d="M913.2 443.8L912.56 446.2H918.12L917.52 443.8C917.173 442.493 916.813 441.107 916.44 439.64C916.093 438.173 915.747 436.76 915.4 435.4H915.24C914.92 436.787 914.587 438.213 914.24 439.68C913.92 441.12 913.573 442.493 913.2 443.8ZM903.76 457L911.92 430.92H919L927.16 457H920.92L919.32 450.8H911.36L909.76 457H903.76ZM929.505 464.76C928.918 464.76 928.398 464.72 927.945 464.64C927.518 464.56 927.105 464.467 926.705 464.36L927.745 459.88C927.931 459.907 928.145 459.947 928.385 460C928.625 460.08 928.851 460.12 929.065 460.12C930.051 460.12 930.811 459.88 931.345 459.4C931.878 458.92 932.278 458.293 932.545 457.52L932.825 456.48L925.185 437.16H931.105L933.945 445.68C934.238 446.587 934.505 447.507 934.745 448.44C934.985 449.373 935.238 450.333 935.505 451.32H935.665C935.878 450.387 936.091 449.453 936.305 448.52C936.545 447.56 936.785 446.613 937.025 445.68L939.425 437.16H945.065L938.185 457.2C937.571 458.853 936.891 460.24 936.145 461.36C935.398 462.507 934.491 463.36 933.425 463.92C932.385 464.48 931.078 464.76 929.505 464.76ZM952.524 457.48C950.364 457.48 948.791 456.773 947.804 455.36C946.844 453.92 946.364 451.96 946.364 449.48V437.16H952.244V448.72C952.244 450.133 952.444 451.12 952.844 451.68C953.244 452.213 953.871 452.48 954.724 452.48C955.471 452.48 956.097 452.307 956.604 451.96C957.111 451.613 957.657 451.053 958.244 450.28V437.16H964.124V457H959.324L958.884 454.24H958.764C957.937 455.227 957.031 456.013 956.044 456.6C955.057 457.187 953.884 457.48 952.524 457.48ZM973.538 457.48C972.232 457.48 970.885 457.227 969.498 456.72C968.138 456.213 966.952 455.547 965.938 454.72L968.578 451.04C969.485 451.707 970.352 452.227 971.178 452.6C972.032 452.947 972.872 453.12 973.698 453.12C974.578 453.12 975.218 452.973 975.618 452.68C976.018 452.36 976.218 451.947 976.218 451.44C976.218 450.987 976.018 450.613 975.618 450.32C975.245 450.027 974.752 449.76 974.138 449.52C973.525 449.253 972.872 448.987 972.178 448.72C971.378 448.4 970.578 448 969.778 447.52C969.005 447.04 968.352 446.427 967.818 445.68C967.285 444.907 967.018 443.973 967.018 442.88C967.018 441.04 967.712 439.547 969.098 438.4C970.512 437.253 972.352 436.68 974.618 436.68C976.138 436.68 977.472 436.947 978.618 437.48C979.792 437.987 980.792 438.56 981.618 439.2L978.978 442.72C978.285 442.187 977.592 441.773 976.898 441.48C976.205 441.187 975.512 441.04 974.818 441.04C973.298 441.04 972.538 441.56 972.538 442.6C972.538 443.24 972.912 443.733 973.658 444.08C974.432 444.4 975.325 444.747 976.338 445.12C977.192 445.413 978.018 445.8 978.818 446.28C979.645 446.733 980.325 447.347 980.858 448.12C981.418 448.867 981.698 449.853 981.698 451.08C981.698 452.867 981.005 454.387 979.618 455.64C978.232 456.867 976.205 457.48 973.538 457.48ZM983.833 457V428.96H989.713V435.84L989.433 439.4C990.179 438.733 991.046 438.12 992.033 437.56C993.046 436.973 994.219 436.68 995.553 436.68C997.713 436.68 999.273 437.4 1000.23 438.84C1001.22 440.253 1001.71 442.2 1001.71 444.68V457H995.833V445.44C995.833 444 995.633 443.013 995.233 442.48C994.859 441.947 994.246 441.68 993.393 441.68C992.646 441.68 992.006 441.853 991.473 442.2C990.939 442.52 990.353 442.987 989.713 443.6V457H983.833ZM1017.05 457V435.88H1009.89V430.92H1030.13V435.88H1022.97V457H1017.05ZM1032.12 457V428.96H1038V435.84L1037.72 439.4C1038.47 438.733 1039.33 438.12 1040.32 437.56C1041.33 436.973 1042.51 436.68 1043.84 436.68C1046 436.68 1047.56 437.4 1048.52 438.84C1049.51 440.253 1050 442.2 1050 444.68V457H1044.12V445.44C1044.12 444 1043.92 443.013 1043.52 442.48C1043.15 441.947 1042.53 441.68 1041.68 441.68C1040.93 441.68 1040.29 441.853 1039.76 442.2C1039.23 442.52 1038.64 442.987 1038 443.6V457H1032.12ZM1058.37 457.48C1056.56 457.48 1055.12 456.907 1054.05 455.76C1052.98 454.587 1052.45 453.16 1052.45 451.48C1052.45 449.4 1053.33 447.773 1055.09 446.6C1056.85 445.427 1059.69 444.64 1063.61 444.24C1063.56 443.36 1063.29 442.667 1062.81 442.16C1062.36 441.627 1061.58 441.36 1060.49 441.36C1059.66 441.36 1058.82 441.52 1057.97 441.84C1057.12 442.16 1056.21 442.6 1055.25 443.16L1053.13 439.28C1054.38 438.507 1055.72 437.88 1057.13 437.4C1058.57 436.92 1060.06 436.68 1061.61 436.68C1064.14 436.68 1066.09 437.413 1067.45 438.88C1068.81 440.347 1069.49 442.6 1069.49 445.64V457H1064.69L1064.29 454.96H1064.13C1063.3 455.707 1062.41 456.32 1061.45 456.8C1060.52 457.253 1059.49 457.48 1058.37 457.48ZM1060.37 452.92C1061.04 452.92 1061.61 452.773 1062.09 452.48C1062.6 452.16 1063.1 451.747 1063.61 451.24V447.76C1061.53 448.027 1060.09 448.453 1059.29 449.04C1058.49 449.6 1058.09 450.267 1058.09 451.04C1058.09 451.68 1058.29 452.16 1058.69 452.48C1059.12 452.773 1059.68 452.92 1060.37 452.92ZM1072.86 457V428.96H1078.58V445.04H1078.74L1085.02 437.16H1091.42L1084.46 445.32L1091.94 457H1085.58L1081.1 449.28L1078.58 452.12V457H1072.86ZM1098.44 457.48C1096.28 457.48 1094.7 456.773 1093.72 455.36C1092.76 453.92 1092.28 451.96 1092.28 449.48V437.16H1098.16V448.72C1098.16 450.133 1098.36 451.12 1098.76 451.68C1099.16 452.213 1099.78 452.48 1100.64 452.48C1101.38 452.48 1102.01 452.307 1102.52 451.96C1103.02 451.613 1103.57 451.053 1104.16 450.28V437.16H1110.04V457H1105.24L1104.8 454.24H1104.68C1103.85 455.227 1102.94 456.013 1101.96 456.6C1100.97 457.187 1099.8 457.48 1098.44 457.48ZM1113.61 457V437.16H1118.41L1118.81 440.64H1118.97C1119.69 439.307 1120.56 438.32 1121.57 437.68C1122.58 437.013 1123.6 436.68 1124.61 436.68C1125.17 436.68 1125.64 436.72 1126.01 436.8C1126.38 436.853 1126.7 436.947 1126.97 437.08L1126.01 442.16C1125.66 442.053 1125.32 441.973 1124.97 441.92C1124.65 441.867 1124.28 441.84 1123.85 441.84C1123.1 441.84 1122.32 442.12 1121.49 442.68C1120.69 443.213 1120.02 444.147 1119.49 445.48V457H1113.61ZM1146.29 448.96V444.8H1156.13V448.96H1146.29ZM1184.68 443.8L1184.04 446.2H1189.6L1189 443.8C1188.65 442.493 1188.29 441.107 1187.92 439.64C1187.57 438.173 1187.22 436.76 1186.88 435.4H1186.72C1186.4 436.787 1186.06 438.213 1185.72 439.68C1185.4 441.12 1185.05 442.493 1184.68 443.8ZM1175.24 457L1183.4 430.92H1190.48L1198.64 457H1192.4L1190.8 450.8H1182.84L1181.24 457H1175.24ZM1199.88 457V430.92H1205.76V457H1199.88ZM1207.76 463.4L1215.8 428.6H1219.64L1211.6 463.4H1207.76ZM1222.27 457V430.92H1228.71L1232.91 442.52C1233.18 443.267 1233.43 444.053 1233.67 444.88C1233.91 445.707 1234.16 446.52 1234.43 447.32H1234.59C1234.86 446.52 1235.1 445.707 1235.31 444.88C1235.55 444.053 1235.8 443.267 1236.07 442.52L1240.19 430.92H1246.59V457H1241.23V447.44C1241.23 446.587 1241.27 445.64 1241.35 444.6C1241.46 443.533 1241.56 442.467 1241.67 441.4C1241.8 440.333 1241.91 439.387 1241.99 438.56H1241.83L1239.71 444.76L1235.99 454.72H1232.75L1229.03 444.76L1226.95 438.56H1226.79C1226.9 439.387 1227 440.333 1227.11 441.4C1227.22 442.467 1227.31 443.533 1227.39 444.6C1227.5 445.64 1227.55 446.587 1227.55 447.44V457H1222.27ZM1251.14 457V430.92H1257.02V452.04H1267.34V457H1251.14ZM1282.57 437.24C1282.57 437.72 1282.64 438.227 1282.77 438.76C1282.93 439.293 1283.14 439.827 1283.41 440.36C1284.34 439.8 1285.13 439.213 1285.77 438.6C1286.41 437.987 1286.73 437.24 1286.73 436.36C1286.73 435.747 1286.58 435.253 1286.29 434.88C1286 434.507 1285.54 434.32 1284.93 434.32C1284.26 434.32 1283.7 434.587 1283.25 435.12C1282.8 435.627 1282.57 436.333 1282.57 437.24ZM1283.25 457.48C1281.36 457.48 1279.76 457.147 1278.45 456.48C1277.17 455.787 1276.2 454.88 1275.53 453.76C1274.89 452.613 1274.57 451.373 1274.57 450.04C1274.57 448.227 1275.04 446.76 1275.97 445.64C1276.93 444.493 1278.05 443.507 1279.33 442.68C1278.82 441.747 1278.42 440.827 1278.13 439.92C1277.86 438.987 1277.73 438.107 1277.73 437.28C1277.73 436.027 1278.01 434.893 1278.57 433.88C1279.16 432.84 1279.98 432.013 1281.05 431.4C1282.12 430.76 1283.37 430.44 1284.81 430.44C1286.78 430.44 1288.34 430.973 1289.49 432.04C1290.64 433.107 1291.21 434.547 1291.21 436.36C1291.21 437.48 1290.94 438.493 1290.41 439.4C1289.88 440.28 1289.2 441.08 1288.37 441.8C1287.54 442.493 1286.68 443.147 1285.77 443.76C1286.52 444.613 1287.33 445.453 1288.21 446.28C1289.12 447.08 1290.05 447.827 1291.01 448.52C1291.68 447.667 1292.26 446.72 1292.77 445.68C1293.28 444.64 1293.69 443.507 1294.01 442.28H1299.37C1298.89 443.853 1298.29 445.373 1297.57 446.84C1296.88 448.307 1296.02 449.72 1295.01 451.08C1295.84 451.507 1296.62 451.867 1297.37 452.16C1298.14 452.427 1298.86 452.613 1299.53 452.72L1298.13 457.48C1297.06 457.267 1295.96 456.933 1294.81 456.48C1293.69 456.027 1292.57 455.48 1291.45 454.84C1290.36 455.667 1289.13 456.32 1287.77 456.8C1286.41 457.253 1284.9 457.48 1283.25 457.48ZM1280.13 449.68C1280.13 450.667 1280.49 451.467 1281.21 452.08C1281.93 452.693 1282.86 453 1284.01 453C1285.1 453 1286.2 452.653 1287.29 451.96C1286.3 451.133 1285.34 450.267 1284.41 449.36C1283.5 448.453 1282.66 447.52 1281.89 446.56C1281.38 447.013 1280.96 447.493 1280.61 448C1280.29 448.507 1280.13 449.067 1280.13 449.68ZM1310.46 457L1305.62 430.92H1311.66L1313.46 443.12C1313.62 444.48 1313.79 445.853 1313.98 447.24C1314.16 448.6 1314.34 449.973 1314.5 451.36H1314.66C1314.92 449.973 1315.18 448.6 1315.42 447.24C1315.68 445.853 1315.95 444.48 1316.22 443.12L1319.02 430.92H1324.02L1326.82 443.12C1327.08 444.427 1327.34 445.773 1327.58 447.16C1327.84 448.547 1328.11 449.947 1328.38 451.36H1328.54C1328.72 449.947 1328.9 448.56 1329.06 447.2C1329.24 445.813 1329.43 444.453 1329.62 443.12L1331.42 430.92H1337.06L1332.42 457H1325.02L1322.46 445.16C1322.24 444.147 1322.04 443.133 1321.86 442.12C1321.7 441.08 1321.55 440.08 1321.42 439.12H1321.26C1321.1 440.08 1320.92 441.08 1320.74 442.12C1320.58 443.133 1320.39 444.147 1320.18 445.16L1317.74 457H1310.46ZM1347.48 457.48C1345.58 457.48 1343.88 457.067 1342.36 456.24C1340.84 455.413 1339.64 454.227 1338.76 452.68C1337.88 451.133 1337.44 449.267 1337.44 447.08C1337.44 444.92 1337.88 443.067 1338.76 441.52C1339.66 439.973 1340.84 438.787 1342.28 437.96C1343.72 437.107 1345.22 436.68 1346.8 436.68C1348.69 436.68 1350.25 437.107 1351.48 437.96C1352.73 438.787 1353.66 439.92 1354.28 441.36C1354.92 442.773 1355.24 444.387 1355.24 446.2C1355.24 446.707 1355.21 447.213 1355.16 447.72C1355.1 448.2 1355.05 448.56 1355 448.8H1343.12C1343.38 450.24 1343.98 451.307 1344.92 452C1345.85 452.667 1346.97 453 1348.28 453C1349.69 453 1351.12 452.56 1352.56 451.68L1354.52 455.24C1353.5 455.933 1352.37 456.48 1351.12 456.88C1349.86 457.28 1348.65 457.48 1347.48 457.48ZM1343.08 444.92H1350.24C1350.24 443.827 1349.97 442.933 1349.44 442.24C1348.93 441.52 1348.09 441.16 1346.92 441.16C1346.01 441.16 1345.2 441.48 1344.48 442.12C1343.76 442.733 1343.29 443.667 1343.08 444.92ZM1368.1 457.48C1367.22 457.48 1366.33 457.267 1365.42 456.84C1364.54 456.387 1363.71 455.733 1362.94 454.88H1362.78L1362.3 457H1357.7V428.96H1363.58V435.84L1363.42 438.88C1364.19 438.187 1365.03 437.653 1365.94 437.28C1366.85 436.88 1367.75 436.68 1368.66 436.68C1370.26 436.68 1371.65 437.093 1372.82 437.92C1373.99 438.747 1374.89 439.92 1375.5 441.44C1376.14 442.933 1376.46 444.693 1376.46 446.72C1376.46 448.987 1376.06 450.933 1375.26 452.56C1374.46 454.16 1373.42 455.387 1372.14 456.24C1370.89 457.067 1369.54 457.48 1368.1 457.48ZM1366.74 452.68C1367.75 452.68 1368.62 452.213 1369.34 451.28C1370.06 450.347 1370.42 448.867 1370.42 446.84C1370.42 443.267 1369.27 441.48 1366.98 441.48C1365.81 441.48 1364.67 442.08 1363.58 443.28V451.4C1364.11 451.88 1364.65 452.213 1365.18 452.4C1365.71 452.587 1366.23 452.68 1366.74 452.68ZM1385.92 457V430.92H1393.28C1395.94 430.92 1398.25 431.373 1400.2 432.28C1402.14 433.187 1403.65 434.6 1404.72 436.52C1405.81 438.413 1406.36 440.853 1406.36 443.84C1406.36 446.827 1405.82 449.293 1404.76 451.24C1403.69 453.187 1402.2 454.64 1400.28 455.6C1398.38 456.533 1396.16 457 1393.6 457H1385.92ZM1391.8 452.24H1392.92C1394.41 452.24 1395.7 451.973 1396.8 451.44C1397.92 450.907 1398.78 450.027 1399.4 448.8C1400.01 447.573 1400.32 445.92 1400.32 443.84C1400.32 441.76 1400.01 440.133 1399.4 438.96C1398.78 437.76 1397.92 436.92 1396.8 436.44C1395.7 435.933 1394.41 435.68 1392.92 435.68H1391.8V452.24ZM1418.11 457.48C1416.21 457.48 1414.51 457.067 1412.99 456.24C1411.47 455.413 1410.27 454.227 1409.39 452.68C1408.51 451.133 1408.07 449.267 1408.07 447.08C1408.07 444.92 1408.51 443.067 1409.39 441.52C1410.29 439.973 1411.47 438.787 1412.91 437.96C1414.35 437.107 1415.85 436.68 1417.43 436.68C1419.32 436.68 1420.88 437.107 1422.11 437.96C1423.36 438.787 1424.29 439.92 1424.91 441.36C1425.55 442.773 1425.87 444.387 1425.87 446.2C1425.87 446.707 1425.84 447.213 1425.79 447.72C1425.73 448.2 1425.68 448.56 1425.63 448.8H1413.75C1414.01 450.24 1414.61 451.307 1415.55 452C1416.48 452.667 1417.6 453 1418.91 453C1420.32 453 1421.75 452.56 1423.19 451.68L1425.15 455.24C1424.13 455.933 1423 456.48 1421.75 456.88C1420.49 457.28 1419.28 457.48 1418.11 457.48ZM1413.71 444.92H1420.87C1420.87 443.827 1420.6 442.933 1420.07 442.24C1419.56 441.52 1418.72 441.16 1417.55 441.16C1416.64 441.16 1415.83 441.48 1415.11 442.12C1414.39 442.733 1413.92 443.667 1413.71 444.92ZM1432.66 457L1425.98 437.16H1431.9L1434.46 446.52C1434.72 447.507 1434.98 448.52 1435.22 449.56C1435.48 450.573 1435.75 451.6 1436.02 452.64H1436.18C1436.42 451.6 1436.66 450.573 1436.9 449.56C1437.16 448.52 1437.43 447.507 1437.7 446.52L1440.3 437.16H1445.94L1439.46 457H1432.66ZM1456.12 447.76L1455.28 435.52L1455.08 430.2H1461L1460.8 435.52L1459.96 447.76H1456.12ZM1458.04 457.48C1457.03 457.48 1456.18 457.133 1455.48 456.44C1454.82 455.72 1454.48 454.84 1454.48 453.8C1454.48 452.733 1454.82 451.853 1455.48 451.16C1456.18 450.44 1457.03 450.08 1458.04 450.08C1459.06 450.08 1459.9 450.44 1460.56 451.16C1461.26 451.853 1461.6 452.733 1461.6 453.8C1461.6 454.84 1461.26 455.72 1460.56 456.44C1459.9 457.133 1459.06 457.48 1458.04 457.48ZM1468.12 447.76L1467.28 435.52L1467.08 430.2H1473L1472.8 435.52L1471.96 447.76H1468.12ZM1470.04 457.48C1469.02 457.48 1468.17 457.133 1467.48 456.44C1466.81 455.72 1466.48 454.84 1466.48 453.8C1466.48 452.733 1466.81 451.853 1467.48 451.16C1468.17 450.44 1469.02 450.08 1470.04 450.08C1471.05 450.08 1471.89 450.44 1472.56 451.16C1473.25 451.853 1473.6 452.733 1473.6 453.8C1473.6 454.84 1473.25 455.72 1472.56 456.44C1471.89 457.133 1471.05 457.48 1470.04 457.48Z" fill="white"/>
    <path d="M1332.6 232.48C1330.79 232.48 1329.35 231.907 1328.28 230.76C1327.21 229.587 1326.68 228.16 1326.68 226.48C1326.68 224.4 1327.56 222.773 1329.32 221.6C1331.08 220.427 1333.92 219.64 1337.84 219.24C1337.79 218.36 1337.52 217.667 1337.04 217.16C1336.59 216.627 1335.81 216.36 1334.72 216.36C1333.89 216.36 1333.05 216.52 1332.2 216.84C1331.35 217.16 1330.44 217.6 1329.48 218.16L1327.36 214.28C1328.61 213.507 1329.95 212.88 1331.36 212.4C1332.8 211.92 1334.29 211.68 1335.84 211.68C1338.37 211.68 1340.32 212.413 1341.68 213.88C1343.04 215.347 1343.72 217.6 1343.72 220.64V232H1338.92L1338.52 229.96H1338.36C1337.53 230.707 1336.64 231.32 1335.68 231.8C1334.75 232.253 1333.72 232.48 1332.6 232.48ZM1334.6 227.92C1335.27 227.92 1335.84 227.773 1336.32 227.48C1336.83 227.16 1337.33 226.747 1337.84 226.24V222.76C1335.76 223.027 1334.32 223.453 1333.52 224.04C1332.72 224.6 1332.32 225.267 1332.32 226.04C1332.32 226.68 1332.52 227.16 1332.92 227.48C1333.35 227.773 1333.91 227.92 1334.6 227.92ZM1349.29 239.76C1348.71 239.76 1348.19 239.72 1347.73 239.64C1347.31 239.56 1346.89 239.467 1346.49 239.36L1347.53 234.88C1347.72 234.907 1347.93 234.947 1348.17 235C1348.41 235.08 1348.64 235.12 1348.85 235.12C1349.84 235.12 1350.6 234.88 1351.13 234.4C1351.67 233.92 1352.07 233.293 1352.33 232.52L1352.61 231.48L1344.97 212.16H1350.89L1353.73 220.68C1354.03 221.587 1354.29 222.507 1354.53 223.44C1354.77 224.373 1355.03 225.333 1355.29 226.32H1355.45C1355.67 225.387 1355.88 224.453 1356.09 223.52C1356.33 222.56 1356.57 221.613 1356.81 220.68L1359.21 212.16H1364.85L1357.97 232.2C1357.36 233.853 1356.68 235.24 1355.93 236.36C1355.19 237.507 1354.28 238.36 1353.21 238.92C1352.17 239.48 1350.87 239.76 1349.29 239.76ZM1372.19 232.48C1370.89 232.48 1369.54 232.227 1368.15 231.72C1366.79 231.213 1365.61 230.547 1364.59 229.72L1367.23 226.04C1368.14 226.707 1369.01 227.227 1369.83 227.6C1370.69 227.947 1371.53 228.12 1372.35 228.12C1373.23 228.12 1373.87 227.973 1374.27 227.68C1374.67 227.36 1374.87 226.947 1374.87 226.44C1374.87 225.987 1374.67 225.613 1374.27 225.32C1373.9 225.027 1373.41 224.76 1372.79 224.52C1372.18 224.253 1371.53 223.987 1370.83 223.72C1370.03 223.4 1369.23 223 1368.43 222.52C1367.66 222.04 1367.01 221.427 1366.47 220.68C1365.94 219.907 1365.67 218.973 1365.67 217.88C1365.67 216.04 1366.37 214.547 1367.75 213.4C1369.17 212.253 1371.01 211.68 1373.27 211.68C1374.79 211.68 1376.13 211.947 1377.27 212.48C1378.45 212.987 1379.45 213.56 1380.27 214.2L1377.63 217.72C1376.94 217.187 1376.25 216.773 1375.55 216.48C1374.86 216.187 1374.17 216.04 1373.47 216.04C1371.95 216.04 1371.19 216.56 1371.19 217.6C1371.19 218.24 1371.57 218.733 1372.31 219.08C1373.09 219.4 1373.98 219.747 1374.99 220.12C1375.85 220.413 1376.67 220.8 1377.47 221.28C1378.3 221.733 1378.98 222.347 1379.51 223.12C1380.07 223.867 1380.35 224.853 1380.35 226.08C1380.35 227.867 1379.66 229.387 1378.27 230.64C1376.89 231.867 1374.86 232.48 1372.19 232.48ZM1382.49 232V203.96H1388.37V210.84L1388.09 214.4C1388.83 213.733 1389.7 213.12 1390.69 212.56C1391.7 211.973 1392.87 211.68 1394.21 211.68C1396.37 211.68 1397.93 212.4 1398.89 213.84C1399.87 215.253 1400.37 217.2 1400.37 219.68V232H1394.49V220.44C1394.49 219 1394.29 218.013 1393.89 217.48C1393.51 216.947 1392.9 216.68 1392.05 216.68C1391.3 216.68 1390.66 216.853 1390.13 217.2C1389.59 217.52 1389.01 217.987 1388.37 218.6V232H1382.49ZM1411.38 232.48C1408.93 232.48 1407.17 231.773 1406.1 230.36C1405.06 228.947 1404.54 227.093 1404.54 224.8V216.76H1401.82V212.4L1404.86 212.16L1405.54 206.88H1410.42V212.16H1415.18V216.76H1410.42V224.72C1410.42 225.84 1410.65 226.653 1411.1 227.16C1411.58 227.64 1412.21 227.88 1412.98 227.88C1413.3 227.88 1413.62 227.84 1413.94 227.76C1414.29 227.68 1414.59 227.587 1414.86 227.48L1415.78 231.76C1415.27 231.92 1414.65 232.08 1413.9 232.24C1413.18 232.4 1412.34 232.48 1411.38 232.48ZM1417.45 232V203.96H1423.33V210.84L1423.05 214.4C1423.8 213.733 1424.66 213.12 1425.65 212.56C1426.66 211.973 1427.84 211.68 1429.17 211.68C1431.33 211.68 1432.89 212.4 1433.85 213.84C1434.84 215.253 1435.33 217.2 1435.33 219.68V232H1429.45V220.44C1429.45 219 1429.25 218.013 1428.85 217.48C1428.48 216.947 1427.86 216.68 1427.01 216.68C1426.26 216.68 1425.62 216.853 1425.09 217.2C1424.56 217.52 1423.97 217.987 1423.33 218.6V232H1417.45ZM1438.7 232V203.96H1444.42V220.04H1444.58L1450.86 212.16H1457.26L1450.3 220.32L1457.78 232H1451.42L1446.94 224.28L1444.42 227.12V232H1438.7ZM1459.02 232V212.16H1463.82L1464.22 215.64H1464.38C1465.1 214.307 1465.96 213.32 1466.98 212.68C1467.99 212.013 1469 211.68 1470.02 211.68C1470.58 211.68 1471.04 211.72 1471.42 211.8C1471.79 211.853 1472.11 211.947 1472.38 212.08L1471.42 217.16C1471.07 217.053 1470.72 216.973 1470.38 216.92C1470.06 216.867 1469.68 216.84 1469.26 216.84C1468.51 216.84 1467.72 217.12 1466.9 217.68C1466.1 218.213 1465.43 219.147 1464.9 220.48V232H1459.02Z" fill="white"/>
    <g clip-path="url(#clip1_1_26)">
    <path d="M1268.25 235.8H1274.55V212.49H1268.25V235.8ZM1271.4 202.2C1269.3 202.2 1267.62 203.88 1267.62 205.98C1267.62 208.08 1269.3 209.76 1271.4 209.76C1273.5 209.76 1275.18 208.08 1275.18 205.98C1275.18 203.88 1273.5 202.2 1271.4 202.2ZM1285.26 216.06V212.49H1278.96V235.8H1285.26V223.83C1285.26 217.11 1293.87 216.69 1293.87 223.83V235.8H1300.17V221.52C1300.17 210.18 1288.2 210.6 1285.26 216.06Z" fill="white"/>
    </g>
    <path d="M1332.72 340.48C1330.91 340.48 1329.47 339.907 1328.4 338.76C1327.34 337.587 1326.8 336.16 1326.8 334.48C1326.8 332.4 1327.68 330.773 1329.44 329.6C1331.2 328.427 1334.04 327.64 1337.96 327.24C1337.91 326.36 1337.64 325.667 1337.16 325.16C1336.71 324.627 1335.94 324.36 1334.84 324.36C1334.02 324.36 1333.18 324.52 1332.32 324.84C1331.47 325.16 1330.56 325.6 1329.6 326.16L1327.48 322.28C1328.74 321.507 1330.07 320.88 1331.48 320.4C1332.92 319.92 1334.42 319.68 1335.96 319.68C1338.5 319.68 1340.44 320.413 1341.8 321.88C1343.16 323.347 1343.84 325.6 1343.84 328.64V340H1339.04L1338.64 337.96H1338.48C1337.66 338.707 1336.76 339.32 1335.8 339.8C1334.87 340.253 1333.84 340.48 1332.72 340.48ZM1334.72 335.92C1335.39 335.92 1335.96 335.773 1336.44 335.48C1336.95 335.16 1337.46 334.747 1337.96 334.24V330.76C1335.88 331.027 1334.44 331.453 1333.64 332.04C1332.84 332.6 1332.44 333.267 1332.44 334.04C1332.44 334.68 1332.64 335.16 1333.04 335.48C1333.47 335.773 1334.03 335.92 1334.72 335.92ZM1349.42 347.76C1348.83 347.76 1348.31 347.72 1347.86 347.64C1347.43 347.56 1347.02 347.467 1346.62 347.36L1347.66 342.88C1347.84 342.907 1348.06 342.947 1348.3 343C1348.54 343.08 1348.76 343.12 1348.98 343.12C1349.96 343.12 1350.72 342.88 1351.26 342.4C1351.79 341.92 1352.19 341.293 1352.46 340.52L1352.74 339.48L1345.1 320.16H1351.02L1353.86 328.68C1354.15 329.587 1354.42 330.507 1354.66 331.44C1354.9 332.373 1355.15 333.333 1355.42 334.32H1355.58C1355.79 333.387 1356 332.453 1356.22 331.52C1356.46 330.56 1356.7 329.613 1356.94 328.68L1359.34 320.16H1364.98L1358.1 340.2C1357.48 341.853 1356.8 343.24 1356.06 344.36C1355.31 345.507 1354.4 346.36 1353.34 346.92C1352.3 347.48 1350.99 347.76 1349.42 347.76ZM1372.32 340.48C1371.01 340.48 1369.66 340.227 1368.28 339.72C1366.92 339.213 1365.73 338.547 1364.72 337.72L1367.36 334.04C1368.26 334.707 1369.13 335.227 1369.96 335.6C1370.81 335.947 1371.65 336.12 1372.48 336.12C1373.36 336.12 1374 335.973 1374.4 335.68C1374.8 335.36 1375 334.947 1375 334.44C1375 333.987 1374.8 333.613 1374.4 333.32C1374.02 333.027 1373.53 332.76 1372.92 332.52C1372.3 332.253 1371.65 331.987 1370.96 331.72C1370.16 331.4 1369.36 331 1368.56 330.52C1367.78 330.04 1367.13 329.427 1366.6 328.68C1366.06 327.907 1365.8 326.973 1365.8 325.88C1365.8 324.04 1366.49 322.547 1367.88 321.4C1369.29 320.253 1371.13 319.68 1373.4 319.68C1374.92 319.68 1376.25 319.947 1377.4 320.48C1378.57 320.987 1379.57 321.56 1380.4 322.2L1377.76 325.72C1377.06 325.187 1376.37 324.773 1375.68 324.48C1374.98 324.187 1374.29 324.04 1373.6 324.04C1372.08 324.04 1371.32 324.56 1371.32 325.6C1371.32 326.24 1371.69 326.733 1372.44 327.08C1373.21 327.4 1374.1 327.747 1375.12 328.12C1375.97 328.413 1376.8 328.8 1377.6 329.28C1378.42 329.733 1379.1 330.347 1379.64 331.12C1380.2 331.867 1380.48 332.853 1380.48 334.08C1380.48 335.867 1379.78 337.387 1378.4 338.64C1377.01 339.867 1374.98 340.48 1372.32 340.48ZM1382.61 340V311.96H1388.49V318.84L1388.21 322.4C1388.96 321.733 1389.82 321.12 1390.81 320.56C1391.82 319.973 1393 319.68 1394.33 319.68C1396.49 319.68 1398.05 320.4 1399.01 321.84C1400 323.253 1400.49 325.2 1400.49 327.68V340H1394.61V328.44C1394.61 327 1394.41 326.013 1394.01 325.48C1393.64 324.947 1393.02 324.68 1392.17 324.68C1391.42 324.68 1390.78 324.853 1390.25 325.2C1389.72 325.52 1389.13 325.987 1388.49 326.6V340H1382.61ZM1411.5 340.48C1409.05 340.48 1407.29 339.773 1406.22 338.36C1405.18 336.947 1404.66 335.093 1404.66 332.8V324.76H1401.94V320.4L1404.98 320.16L1405.66 314.88H1410.54V320.16H1415.3V324.76H1410.54V332.72C1410.54 333.84 1410.77 334.653 1411.22 335.16C1411.7 335.64 1412.33 335.88 1413.1 335.88C1413.42 335.88 1413.74 335.84 1414.06 335.76C1414.41 335.68 1414.72 335.587 1414.98 335.48L1415.9 339.76C1415.4 339.92 1414.77 340.08 1414.02 340.24C1413.3 340.4 1412.46 340.48 1411.5 340.48ZM1417.58 340V311.96H1423.46V318.84L1423.18 322.4C1423.92 321.733 1424.79 321.12 1425.78 320.56C1426.79 319.973 1427.96 319.68 1429.3 319.68C1431.46 319.68 1433.02 320.4 1433.98 321.84C1434.96 323.253 1435.46 325.2 1435.46 327.68V340H1429.58V328.44C1429.58 327 1429.38 326.013 1428.98 325.48C1428.6 324.947 1427.99 324.68 1427.14 324.68C1426.39 324.68 1425.75 324.853 1425.22 325.2C1424.68 325.52 1424.1 325.987 1423.46 326.6V340H1417.58ZM1438.83 340V311.96H1444.55V328.04H1444.71L1450.99 320.16H1457.39L1450.43 328.32L1457.91 340H1451.55L1447.07 332.28L1444.55 335.12V340H1438.83ZM1459.14 340V320.16H1463.94L1464.34 323.64H1464.5C1465.22 322.307 1466.09 321.32 1467.1 320.68C1468.11 320.013 1469.13 319.68 1470.14 319.68C1470.7 319.68 1471.17 319.72 1471.54 319.8C1471.91 319.853 1472.23 319.947 1472.5 320.08L1471.54 325.16C1471.19 325.053 1470.85 324.973 1470.5 324.92C1470.18 324.867 1469.81 324.84 1469.38 324.84C1468.63 324.84 1467.85 325.12 1467.02 325.68C1466.22 326.213 1465.55 327.147 1465.02 328.48V340H1459.14Z" fill="white"/>
    <path d="M1286.12 305C1280.78 305.096 1275.44 305.429 1270.12 306L1265.12 309L1262.12 314L1261.12 320C1260.79 328.679 1261.13 337.372 1262.12 346L1265.12 351L1270.12 354L1276.12 355C1284.8 355.316 1293.49 354.982 1302.12 354L1307.12 351L1310.12 346L1311.12 340C1311.42 331.321 1311.09 322.631 1310.12 314L1307.12 309L1302.12 306L1296.12 305H1286.12ZM1286.12 310C1291.14 310.122 1296.14 310.456 1301.12 311L1304.12 312L1305.12 315L1306.12 320L1307.12 330L1306.12 340L1305.12 345L1304.12 348L1301.12 349L1296.12 350C1287.78 350.26 1279.42 349.926 1271.12 349L1268.12 348L1266.12 345V340L1265.12 330L1266.12 320V315L1268.12 312L1271.12 310H1276.12L1286.12 309V310ZM1286.12 317C1282.68 317 1279.37 318.37 1276.93 320.808C1274.49 323.246 1273.12 326.552 1273.12 330C1273.12 333.448 1274.49 336.754 1276.93 339.192C1279.37 341.63 1282.68 343 1286.12 343C1289.57 343 1292.88 341.63 1295.32 339.192C1297.75 336.754 1299.12 333.448 1299.12 330C1299.12 326.552 1297.75 323.246 1295.32 320.808C1292.88 318.37 1289.57 317 1286.12 317ZM1286.12 338C1284 338 1281.97 337.157 1280.47 335.657C1278.97 334.157 1278.12 332.122 1278.12 330C1278.12 327.878 1278.97 325.843 1280.47 324.343C1281.97 322.843 1284 322 1286.12 322C1288.25 322 1290.28 322.843 1291.78 324.343C1293.28 325.843 1294.12 327.878 1294.12 330C1294.12 332.122 1293.28 334.157 1291.78 335.657C1290.28 337.157 1288.25 338 1286.12 338ZM1302.12 317C1302.12 317.796 1301.81 318.559 1301.25 319.121C1300.68 319.684 1299.92 320 1299.12 320C1298.33 320 1297.57 319.684 1297 319.121C1296.44 318.559 1296.12 317.796 1296.12 317C1296.12 316.204 1296.44 315.441 1297 314.879C1297.57 314.316 1298.33 314 1299.12 314C1299.92 314 1300.68 314.316 1301.25 314.879C1301.81 315.441 1302.12 316.204 1302.12 317Z" fill="white"/>
    <path d="M1332.6 120.48C1330.79 120.48 1329.35 119.907 1328.28 118.76C1327.21 117.587 1326.68 116.16 1326.68 114.48C1326.68 112.4 1327.56 110.773 1329.32 109.6C1331.08 108.427 1333.92 107.64 1337.84 107.24C1337.79 106.36 1337.52 105.667 1337.04 105.16C1336.59 104.627 1335.81 104.36 1334.72 104.36C1333.89 104.36 1333.05 104.52 1332.2 104.84C1331.35 105.16 1330.44 105.6 1329.48 106.16L1327.36 102.28C1328.61 101.507 1329.95 100.88 1331.36 100.4C1332.8 99.92 1334.29 99.68 1335.84 99.68C1338.37 99.68 1340.32 100.413 1341.68 101.88C1343.04 103.347 1343.72 105.6 1343.72 108.64V120H1338.92L1338.52 117.96H1338.36C1337.53 118.707 1336.64 119.32 1335.68 119.8C1334.75 120.253 1333.72 120.48 1332.6 120.48ZM1334.6 115.92C1335.27 115.92 1335.84 115.773 1336.32 115.48C1336.83 115.16 1337.33 114.747 1337.84 114.24V110.76C1335.76 111.027 1334.32 111.453 1333.52 112.04C1332.72 112.6 1332.32 113.267 1332.32 114.04C1332.32 114.68 1332.52 115.16 1332.92 115.48C1333.35 115.773 1333.91 115.92 1334.6 115.92ZM1349.29 127.76C1348.71 127.76 1348.19 127.72 1347.73 127.64C1347.31 127.56 1346.89 127.467 1346.49 127.36L1347.53 122.88C1347.72 122.907 1347.93 122.947 1348.17 123C1348.41 123.08 1348.64 123.12 1348.85 123.12C1349.84 123.12 1350.6 122.88 1351.13 122.4C1351.67 121.92 1352.07 121.293 1352.33 120.52L1352.61 119.48L1344.97 100.16H1350.89L1353.73 108.68C1354.03 109.587 1354.29 110.507 1354.53 111.44C1354.77 112.373 1355.03 113.333 1355.29 114.32H1355.45C1355.67 113.387 1355.88 112.453 1356.09 111.52C1356.33 110.56 1356.57 109.613 1356.81 108.68L1359.21 100.16H1364.85L1357.97 120.2C1357.36 121.853 1356.68 123.24 1355.93 124.36C1355.19 125.507 1354.28 126.36 1353.21 126.92C1352.17 127.48 1350.87 127.76 1349.29 127.76ZM1372.19 120.48C1370.89 120.48 1369.54 120.227 1368.15 119.72C1366.79 119.213 1365.61 118.547 1364.59 117.72L1367.23 114.04C1368.14 114.707 1369.01 115.227 1369.83 115.6C1370.69 115.947 1371.53 116.12 1372.35 116.12C1373.23 116.12 1373.87 115.973 1374.27 115.68C1374.67 115.36 1374.87 114.947 1374.87 114.44C1374.87 113.987 1374.67 113.613 1374.27 113.32C1373.9 113.027 1373.41 112.76 1372.79 112.52C1372.18 112.253 1371.53 111.987 1370.83 111.72C1370.03 111.4 1369.23 111 1368.43 110.52C1367.66 110.04 1367.01 109.427 1366.47 108.68C1365.94 107.907 1365.67 106.973 1365.67 105.88C1365.67 104.04 1366.37 102.547 1367.75 101.4C1369.17 100.253 1371.01 99.68 1373.27 99.68C1374.79 99.68 1376.13 99.9467 1377.27 100.48C1378.45 100.987 1379.45 101.56 1380.27 102.2L1377.63 105.72C1376.94 105.187 1376.25 104.773 1375.55 104.48C1374.86 104.187 1374.17 104.04 1373.47 104.04C1371.95 104.04 1371.19 104.56 1371.19 105.6C1371.19 106.24 1371.57 106.733 1372.31 107.08C1373.09 107.4 1373.98 107.747 1374.99 108.12C1375.85 108.413 1376.67 108.8 1377.47 109.28C1378.3 109.733 1378.98 110.347 1379.51 111.12C1380.07 111.867 1380.35 112.853 1380.35 114.08C1380.35 115.867 1379.66 117.387 1378.27 118.64C1376.89 119.867 1374.86 120.48 1372.19 120.48ZM1382.49 120V91.96H1388.37V98.84L1388.09 102.4C1388.83 101.733 1389.7 101.12 1390.69 100.56C1391.7 99.9733 1392.87 99.68 1394.21 99.68C1396.37 99.68 1397.93 100.4 1398.89 101.84C1399.87 103.253 1400.37 105.2 1400.37 107.68V120H1394.49V108.44C1394.49 107 1394.29 106.013 1393.89 105.48C1393.51 104.947 1392.9 104.68 1392.05 104.68C1391.3 104.68 1390.66 104.853 1390.13 105.2C1389.59 105.52 1389.01 105.987 1388.37 106.6V120H1382.49ZM1411.38 120.48C1408.93 120.48 1407.17 119.773 1406.1 118.36C1405.06 116.947 1404.54 115.093 1404.54 112.8V104.76H1401.82V100.4L1404.86 100.16L1405.54 94.88H1410.42V100.16H1415.18V104.76H1410.42V112.72C1410.42 113.84 1410.65 114.653 1411.1 115.16C1411.58 115.64 1412.21 115.88 1412.98 115.88C1413.3 115.88 1413.62 115.84 1413.94 115.76C1414.29 115.68 1414.59 115.587 1414.86 115.48L1415.78 119.76C1415.27 119.92 1414.65 120.08 1413.9 120.24C1413.18 120.4 1412.34 120.48 1411.38 120.48ZM1417.45 120V91.96H1423.33V98.84L1423.05 102.4C1423.8 101.733 1424.66 101.12 1425.65 100.56C1426.66 99.9733 1427.84 99.68 1429.17 99.68C1431.33 99.68 1432.89 100.4 1433.85 101.84C1434.84 103.253 1435.33 105.2 1435.33 107.68V120H1429.45V108.44C1429.45 107 1429.25 106.013 1428.85 105.48C1428.48 104.947 1427.86 104.68 1427.01 104.68C1426.26 104.68 1425.62 104.853 1425.09 105.2C1424.56 105.52 1423.97 105.987 1423.33 106.6V120H1417.45ZM1438.7 120V91.96H1444.42V108.04H1444.58L1450.86 100.16H1457.26L1450.3 108.32L1457.78 120H1451.42L1446.94 112.28L1444.42 115.12V120H1438.7ZM1459.02 120V100.16H1463.82L1464.22 103.64H1464.38C1465.1 102.307 1465.96 101.32 1466.98 100.68C1467.99 100.013 1469 99.68 1470.02 99.68C1470.58 99.68 1471.04 99.72 1471.42 99.8C1471.79 99.8533 1472.11 99.9467 1472.38 100.08L1471.42 105.16C1471.07 105.053 1470.72 104.973 1470.38 104.92C1470.06 104.867 1469.68 104.84 1469.26 104.84C1468.51 104.84 1467.72 105.12 1466.9 105.68C1466.1 106.213 1465.43 107.147 1464.9 108.48V120H1459.02Z" fill="white"/>
    <mask id="mask1_1_26" style="mask-type:luminance" maskUnits="userSpaceOnUse" x="1261" y="85" width="50" height="50">
    <path d="M1311 85H1261V135H1311V85Z" fill="white"/>
    </mask>
    <g mask="url(#mask1_1_26)">
    <path d="M1311 95L1305 96C1307 95 1309 93 1310 90C1308 92 1305 92 1303 93C1301.7 91.2275 1299.85 89.9339 1297.73 89.3195C1295.62 88.705 1293.37 88.8041 1291.32 89.6014C1289.27 90.3986 1287.54 91.8495 1286.4 93.7294C1285.25 95.6093 1284.76 97.8132 1285 100L1286 102C1277 102 1269 98 1264 92L1263 97C1263 100 1265 103 1268 105L1263 104C1263 109 1266 113 1271 114C1269.68 114.269 1268.32 114.269 1267 114C1268 118 1272 121 1276 121C1271.84 124.557 1266.46 126.351 1261 126C1266 129 1271 130 1277 130C1296 130 1306 115 1306 101V100L1311 95Z" fill="white"/>
    </g>
    <g transform="translate(549 -975) scale(1.34105)">
      <path class="bear__fur" d="M243 894c0 61-36 106-94 106-55 0-92-45-92-106s38-86 91-86 95 25 95 86z"/>
      <path class="bear__muzzle" d="M212 958c0 20-29 39-63 39-35 0-61-19-61-39s26-33 61-33 63 13 63 33z"/>
      <path class="bear__nose" d="M181 932c0 7-19 24-30 24s-32-17-32-24c0-8 20-13 31-13 12 0 31 5 31 13z"/>
      <path class="bear__inner-ear" d="M85 826a17 16 0 00-17-14 17 16 0 00-16 16 17 16 0 0016 16 17 16 0 001 0l3-4a66 66 0 0111-12z"/>
      <ellipse class="bear__outer-ear" ry="23.1" rx="23.8" cy="827.7" cx="-231.2" transform="scale(-1 1)"/>
      <path class="bear__inner-ear" d="M215 826a17 16 0 0116-14 17 16 0 0117 16 17 16 0 01-17 16 17 16 0 01-1 0l-2-4a66 66 0 00-11-12z"/> -->
      <path class="bear__cap-strap" d="M148 815c-14 0-26 1-38 4v11a199 199 0 0180 1v-11c-13-3-27-5-42-5z"/>
      <path class="bear__small-cap-strap" d="M165 816a16 8 0 015 5 16 8 0 01-6 6l26 4v-11z"/>
      <path class="bear__cap" d="M148 789c-43 0-76 20-83 64 12-11 28-19 45-23 0 0-2-12 10-16 15-4 19-4 28-4 10 0 15 0 30 4s12 17 12 17c18 5 32 11 45 22-8-46-43-64-87-64z"/>
      <circle class="bear__eye" cx="97.2" cy="894.1" r="11.2"/>
      <circle class="bear__eye" cy="894.1" cx="201.9" r="11.2"/>
      <path style="fill:none;stroke:#e9afaf;stroke-width:3;stroke-linecap:round;stroke-linejoin:round" class="bear__eyebrows" d="M97 864a21 21 0 01-7 16 21 21 0 01-16 5m130-21a21 21 0 006 16 21 21 0 0016 5"/>
      <path class="shades-frame" d="M77 855c-6 0-13 0-23 2l-14 3 2 15 7 2c3 5 1 10 2 18 3 28 12 34 26 35 8 1 23 3 33-1s19-10 25-18c6-9 6-18 10-26 3-5 8-4 10 0 3 8 4 17 10 26 6 8 15 14 24 18 11 4 26 2 34 1 14-1 23-7 26-35 1-8-2-13 2-18l7-2 2-15-15-3c-15-3-23-2-34-2h-13l-25 4c-8 2-15 7-23 6-8 0-15-5-23-6l-25-4z"/>
      <path style="fill:#333333" class="lens" d="M85 860c-10 1-25 1-28 13-3 15-3 32 6 45 7 11 23 9 35 9 19-1 35-16 40-34 2-8 4-14 1-19-6-10-20-12-31-13z"/>
      <path class="shades-dot" d="M56 864a4 2 0 01-4 2 4 2 0 01-4-2 4 2 0 014-1 4 2 0 014 1"/>
      <path style="fill:#333333" class="lens" d="M215 860c10 1 24 1 28 13 3 15 3 32-6 45-7 11-23 9-35 9-19-1-35-16-40-34-2-8-4-14-1-19 6-10 20-12 31-13z"/>
      <path class="shades-dot" d="M244 864a4 2 0 004 2 4 2 0 004-2 4 2 0 00-4-1 4 2 0 00-4 1"/>
      <g clip-path="url(#spec-left)">
        <use height="100%" width="100%" xlink:href="#code-block"/>
        <use height="100%" width="100%" xlink:href="#code-block" y="284"/>
      </g>
      <g clip-path="url(#spec-right)">
        <use height="100%" width="100%" xlink:href="#code-block" transform="translate(104)"/>
        <use height="100%" width="100%" xlink:href="#code-block" transform="translate(104)" y="284"/>
      </g>
      <path class="lens__shine" d="M101 861l-19 66h17l18-65zm-12-1h-4l-3 1-18 59 6 5z"/>
    </g>
  </g>
  <defs id="defs48">
    <clipPath id="clip0">
      <rect id="rect41" fill="#fff" height="500" width="1500"/>
    </clipPath>
    <clipPath id="clip1">
      <rect id="rect44" transform="translate(1261 188)" fill="#fff" height="50" width="50"/>
    </clipPath>
    <clipPath id="spec-left">
      <path d="M85 860c-10 1-25 1-28 13-3 15-3 32 6 45 7 11 23 9 35 9 19-1 35-16 40-34 2-8 4-14 1-19-6-10-20-12-31-13l-23-1z" fill="#333" id="path5554"/>
    </clipPath>
    <clipPath id="spec-right">
      <path d="M215 860c10 1 24 1 28 13 3 15 3 32-6 45-7 11-23 9-35 9-19-1-35-16-40-34-2-8-4-14-1-19 6-10 20-12 31-13l23-1z" fill="#333" id="path5557"/>
    </clipPath>
    <pattern height="1" width="1" patternContentUnits="objectBoundingBox" id="pattern0">
      <use id="use38" transform="scale(.005)" xlink:href="#image0"/>
    </pattern>
    <style type="text/css" id="style5503">
      svg { --fur: #662900; --ear: #e4b89b; --cap-strap--large: #f00; --cap-strap--small: #900; --cap: #0d0d0d; --dots: rgba(242,242,242,0.6); --frame: #000; --shine: rgba(242,242,242,0.35); --lens: #595959; --code-one: rgba(128,230,25,0.5); --code-two: rgba(229,230,25,0.5); --code-three: rgba(230,25,128,0.5); --code-four: rgba(25,195,230,0.5); } .code-block { -webkit-animation: read 1s infinite linear; animation: read 1s infinite linear; } .code-block rect { fill: var(--code-one); } .code-block rect:nth-of-type(5) { fill: var(--code-four); } .code-block rect:nth-of-type(8), .code-block rect:nth-of-type(9) { fill: var(--code-two); } .code-block rect:nth-of-type(12) { fill: var(--code-three); } .bear__fur, .bear__outer-ear { fill: var(--fur); } .bear__inner-ear, .bear__muzzle { fill: var(--ear); } .bear__cap-strap { fill: var(--cap-strap--large); } .bear__small-cap-strap { fill: var(--cap-strap--small); } .bear__cap { fill: var(--cap); } .lens { fill: var(--lens); } .lens__shine { fill: var(--shine); } .shades-dot { fill: var(--dots); } .bear__nose, .shades-frame { fill: var(--frame); } @-webkit-keyframes read { to { -webkit-transform: translate(0, -283.5px); transform: translate(0, -283.5px); } } @keyframes read { to { -webkit-transform: translate(0, -283.5px); transform: translate(0, -283.5px); } }
    </style>
    <g class="code-block" id="code-block">
      <rect ry="0" y="862" x="60" height="7.5" width="74" id="rect5505"/>
      <rect ry="0" y="874" x="96" height="7.5" width="28" id="rect5507"/>
      <rect width="54" height="7.5" x="60" y="886" ry="0" id="rect5509"/>
      <rect ry="0" y="897" x="60" height="7.5" width="74" id="rect5511"/>
      <rect width="56" height="7.5" x="78" y="909" ry="0" id="rect5513"/>
      <rect ry="0" y="921" x="83" height="7.5" width="51" id="rect5515"/>
      <rect width="51" height="7.5" x="73" y="932" ry="0" id="rect5517"/>
      <rect ry="0" y="944" x="72" height="7.5" width="62" id="rect5519"/>
      <rect width="74" height="7.5" x="60" y="956" ry="0" id="rect5521"/>
      <rect ry="0" y="967" x="50" height="7.5" width="84" id="rect5523"/>
      <rect width="64" height="7.5" x="60" y="979" ry="0" id="rect5525"/>
      <rect ry="0" y="991" x="60" height="7.5" width="74" id="rect5527"/>
      <rect width="41" height="7.5" x="93" y="1003" ry="0" id="rect5529"/>
      <rect ry="0" y="1014" x="66" height="7.5" width="58" id="rect5531"/>
      <rect width="58" height="7.5" x="56" y="1026" ry="0" id="rect5533"/>
      <rect ry="0" y="1038" x="50" height="7.5" width="74" id="rect5535"/>
      <rect width="46" height="7.5" x="88" y="1049" ry="0" id="rect5537"/>
      <rect ry="0" y="1061" x="105" height="7.5" width="19" id="rect5539"/>
      <rect width="38" height="7.5" x="96" y="1073" ry="0" id="rect5541"/>
      <rect ry="0" y="1084" x="73" height="7.5" width="51" id="rect5543"/>
      <rect ry="0" y="1096" x="88" height="7.5" width="26" id="rect5545"/>
      <rect width="56" height="7.5" x="68" y="1108" ry="0" id="rect5547"/>
      <rect ry="0" y="1120" x="100" height="7.5" width="24" id="rect5549"/>
      <rect width="74" height="7.5" x="50" y="1131" ry="0" id="rect5551"/>
    </g>
  </defs>
</svg>
